Bedtime Stories (2008) [BDRip720p][Nautilus-BT]
Join www.nautilus-bt.org


Link IMDb : http://www.imdb.com/title/tt0960731/

A family comedy about a hotel handyman whose life changes when the lavish bedtime stories he tells his niece and nephew start to magically come true.







Titolo italiano : Racconti Incantati
Titolo originale : Bedtime Stories
Anno : 2008
Genere : Commedia - fantastico
Paese : USA
Montaggio : Tom Costain, Michael Tronick
Regia : Adam Shankman
Sceneggiatura : Matt Lopez, Tim Herlihy


Lingue : Italiano - Inglese
Sottotitoli : Italiano - Inglese
Sottotitoli per non udenti : Inglese
Cartelli : Italiano
Capitoli : si


[code]
General
Complete name                    : Racconti Incantati - Bedtime Stories (2008) [BDRip720p Ita-Eng] by Pitt@Sk8.mkv
Format                           : Matroska
File size                        : 4.38 GiB
Duration                         : 1h 39mn
Overall bit rate                 : 6 318 Kbps
Encoded date                     : UTC 2010-12-29 16:36:09
Writing application              : mkvmerge v4.0.0 ('The Stars were mine') built on Jun  6 2010 16:18:42
Writing library                  : libebml v1.0.0 + libmatroska v1.0.0

Video
ID                               : 1
Format                           : AVC
Format/Info                      : Advanced Video Codec
Format profile                   : High@L4.1
Format settings, CABAC           : Yes
Format settings, ReFrames        : 3 frames
Format settings, GOP             : M=4, N=34
Muxing mode                      : Container profile=Unknown@4.1
Codec ID                         : V_MPEG4/ISO/AVC
Duration                         : 1h 39mn
Bit rate mode                    : Variable
Bit rate                         : 4 265 Kbps
Maximum bit rate                 : 45.0 Mbps
Width                            : 1 280 pixels
Height                           : 544 pixels
Display aspect ratio             : 16:9
Frame rate                       : 23.976 fps
Color space                      : YUV
Chroma subsampling               : 4:2:0
Bit depth                        : 8 bits
Scan type                        : Progressive
Bits/(Pixel*Frame)               : 0.255
Stream size                      : 2.88 GiB (66%)
Title                            : BDRip720p by Pitt@Sk8
Writing library                  : x264 core 104 r1713 c276662
Encoding settings                : cabac=1 / ref=3 / deblock=1:0:0 / analyse=0x3:0x133 / me=hex / subme=7 / psy=1 / psy_rd=1.00:0.00 / mixed_ref=1 / me_range=16 / chroma_me=1 / trellis=1 / 8x8dct=1 / cqm=0 / deadzone=21,11 / fast_pskip=1 / chroma_qp_offset=-2 / threads=6 / sliced_threads=0 / slices=4 / nr=0 / decimate=1 / interlaced=0 / constrained_intra=0 / bframes=3 / b_pyramid=1 / b_adapt=1 / b_bias=0 / direct=1 / weightb=1 / open_gop=2 / weightp=2 / keyint=240 / keyint_min=23 / scenecut=40 / intra_refresh=0 / rc_lookahead=40 / rc=2pass / mbtree=1 / bitrate=4265 / ratetol=1.0 / qcomp=0.60 / qpmin=10 / qpmax=51 / qpstep=4 / cplxblur=20.0 / qblur=0.5 / vbv_maxrate=45000 / vbv_bufsize=45000 / ip_ratio=1.40 / aq=1:1.00 / nal_hrd=vbr

Audio #1
ID                               : 2
Format                           : AC-3
Format/Info                      : Audio Coding 3
Mode extension                   : CM (complete main)
Codec ID                         : A_AC3
Duration                         : 1h 39mn
Bit rate mode                    : Constant
Bit rate                         : 640 Kbps
Channel(s)                       : 6 channels
Channel positions                : Front: L C R, Side: L R, LFE
Sampling rate                    : 48.0 KHz
Bit depth                        : 16 bits
Stream size                      : 454 MiB (10%)
Title                            : Italiano AC3 5.1 640 kbps - Pitt@Sk8
Language                         : Italian

Audio #2
ID                               : 3
Format                           : DTS
Format/Info                      : Digital Theater Systems
Codec ID                         : A_DTS
Duration                         : 1h 39mn
Bit rate mode                    : Constant
Bit rate                         : 755 Kbps
Channel(s)                       : 6 channels
Channel positions                : Front: L C R, Side: L R, LFE
Sampling rate                    : 48.0 KHz
Bit depth                        : 24 bits
Stream size                      : 536 MiB (12%)
Title                            : Italiano DTS 5.1 755 kbps - Pitt@Sk8
Language                         : Italian

Audio #3
ID                               : 4
Format                           : AC-3
Format/Info                      : Audio Coding 3
Mode extension                   : CM (complete main)
Codec ID                         : A_AC3
Duration                         : 1h 39mn
Bit rate mode                    : Constant
Bit rate                         : 640 Kbps
Channel(s)                       : 6 channels
Channel positions                : Front: L C R, Side: L R, LFE
Sampling rate                    : 48.0 KHz
Bit depth                        : 16 bits
Stream size                      : 454 MiB (10%)
Title                            : English AC3 5.1 640 kbps - Pitt@Sk8
Language                         : English

Text #1
ID                               : 5
Format                           : VobSub
Codec ID                         : S_VOBSUB
Codec ID/Info                    : The same subtitle format used on DVDs
Title                            : Cartelli - Italiano
Language                         : Italian

Text #2
ID                               : 6
Format                           : VobSub
Codec ID                         : S_VOBSUB
Codec ID/Info                    : The same subtitle format used on DVDs
Title                            : Sottotitoli - Italiano
Language                         : Italian

Text #3
ID                               : 7
Format                           : VobSub
Codec ID                         : S_VOBSUB
Codec ID/Info                    : The same subtitle format used on DVDs
Title                            : Subtitle English
Language                         : English

Text #4
ID                               : 8
Format                           : VobSub
Codec ID                         : S_VOBSUB
Codec ID/Info                    : The same subtitle format used on DVDs
Title                            : Subtitle English [deaf]
Language                         : English

Menu
00:00:00.000                     : en:01 - Titoli di testa
00:05:28.703                     : en:02 - Il Sunny Vista Mega Nottingham
00:09:19.726                     : en:03 - La festa di compleanno di Bobbi
00:14:44.759                     : en:04 - Lo zio Skeeter baby-sitter
00:19:02.433                     : en:05 - Messer Aggiustatutto
00:24:25.339                     : en:06 - L'occasione di Skeeter
00:30:07.264                     : en:07 - Una pioggia di chewing gum
00:35:06.980                     : en:08 - Avventura nel selvaggio West
00:40:27.800                     : en:09 - I paparazzi angosciano la principessa
00:45:15.463                     : en:10 - Campeggio sul tetto
00:52:11.920                     : en:11 - La leggenda di Skeetacus
00:56:57.289                     : en:12 - Un giorno in spiaggia
01:03:36.021                     : en:13 - Odissea spaziale
01:08:50.460                     : en:14 - Prevenzione incendi
01:14:21.290                     : en:15 - L'idea di Skeeter per l'hotel
01:19:25.803                     : en:16 - "La parte triste"
01:23:05.147                     : en:17 - Demolizione
01:26:24.304                     : en:18 - Lieto fine
01:30:36.598                     : en:19 - Il Marty's Motel
01:32:34.299                     : en:20 - Titoli di coda
[/code]

Join www.nautilus-bt.org
